# xmcd CD database file
#
# Track frame offsets:
#	150
#	11792
#	28522
#	67912
#	79567
#	110907
#	127852
#	141507
#	154767
#	171767
#
# Disc length: 2576 seconds
#
# Revision: 2
# Processed by: cddbd v1.5PL3 Copyright (c) Steve Scherf et al.
# Submitted via: CDex 1.51
#
DISCID=7e0a0e0a
DTITLE=Kiko Veneno - Pata Palo
DYEAR=2000
DGENRE=World Music
TTITLE0=Pata Palo
TTITLE1=Seré Mecánico Pro Ti
TTITLE2=La Muchachita
TTITLE3=Un Catalán Fino
TTITLE4=Aparta El Corazón De Las Mangueras
TTITLE5=Indiopole
TTITLE6=Quítate La Bata
TTITLE7=Farmacia De Guardia
TTITLE8=Si Tú Si Yo
TTITLE9=Los Delincuentes
EXTD=YEAR: 2000
EXTT0=
EXTT1=
EXTT2=
EXTT3=
EXTT4=
EXTT5=
EXTT6=
EXTT7=
EXTT8=
EXTT9=
PLAYORDER=
